<svg width="480" height="397" fill="none" xmlns="http://www.w3.org/2000/svg"><path fill-rule="evenodd" clip-rule="evenodd" d="M98.868 14.875c143.911-19.112 226.858-20.542 380.265 0l.867.116v68.26h-9.073v31.446h-16.192a71.646 71.646 0 0 0-.957 7.029c-.376 4.456-.355 9.756 1.075 13.583 1.523 4.081 5.375 8.439 8.964 11.843a80.414 80.414 0 0 0 4.69 4.104 67.028 67.028 0 0 0 1.874 1.464l.04.03.063.047.026.018.006.005h.001l-.004.006.004-.005.41.299v25.962H480v161.225h-9.073v36.748l-.795.167c-125.899 26.354-206.367 26.395-360.626.007l-.832-.142v-36.78H98V179.082h10.674v-26.037l.508-.287c.869-.492 1.761-.975 2.661-1.461 2.799-1.513 5.67-3.065 8.161-5.071 3.239-2.607 5.712-5.897 6.29-10.687l.001-.01.002-.011c.928-6.508 1.063-10.96.085-20.821h-17.708V83.251H98V14.99l.868-.115Zm11.806 325.544c146.733 15.591 225.597 15.607 358.253.013v34.998c-124.925 26.08-205.057 26.126-358.253-.031v-34.98Zm17.718-225.722h324.309a73.54 73.54 0 0 0-.916 6.861c-.248 2.939-.343 6.382.066 9.607H128.824c.402-4.595.299-9.037-.432-16.468Zm.228 18.468h323.558c.204.994.467 1.95.801 2.844 1.696 4.543 5.85 9.169 9.462 12.594a82.508 82.508 0 0 0 6.322 5.401l.164.124v25.579c-139.368 6.755-218.415 6.24-358.253-.081v-25.412c.64-.356 1.306-.716 1.988-1.084l.004-.002.001-.001.008-.004.003-.002c2.831-1.53 5.932-3.205 8.581-5.337 3.514-2.829 6.359-6.549 7.019-11.994.129-.907.243-1.776.342-2.625Zm325.296-20.468h15.011V83.251H110.674v29.446h343.242ZM109.674 81.251H478v-64.51C325.641-3.613 242.94-2.202 100 16.742v64.51h9.674Zm-.045 100.329.022-.498H100v157.225h9.727l.053.006c147.723 15.738 226.528 15.747 360.03.001l.058-.007H478V181.082h-6.447l.024.498c-141.348 6.905-220.607 6.404-361.948 0Z" fill="#344F10"/><path fill="#333" d="M76 51.001H0v-1h76zM76 124.002H0v-1h76zM76 200.002H0v-1h76zM76 273.002H0v-1h76zM76 345.002H0v-1h76z"/></svg>