<svg width="100" height="85" fill="none" xmlns="http://www.w3.org/2000/svg"><path d="m75.876 14.41-5.192 3.708C56.675-.456 49.088-10.367 24.901 22.752l16.992 10.196c2.415-7.972 4.447-12.034 9.44-18.538l5.663 11.123-5.663 4.17c6.85.65 10.52.734 16.52 0 4.066-4.83 5.942-8.038 8.023-15.293ZM63.93 76.327l-.786-6.333c22.999-3.473 35.324-5.424 17.738-42.476L63.826 37.606c5.856 5.922 8.458 9.644 11.796 17.134l-12.474-.317-.968-6.97c-3.834 5.718-5.656 8.905-7.87 14.53 2.31 5.88 4.234 9.058 9.62 14.344ZM11.3 34.8l5.917 2.383C9.103 58.99 4.833 70.72 45.753 73.298l-.55-19.814c-8.017 2.252-12.533 2.723-20.699 2.012l6.325-10.76 6.562 2.533c-3.14-6.126-5.042-9.266-8.887-13.93-6.259-.83-9.971-.687-17.204 1.46Z" stroke="#344F10"/></svg>